<?xml version="1.0" encoding="UTF-8" standalone="no"?>
<svg
   xmlns:dc="http://purl.org/dc/elements/1.1/"
   xmlns:cc="http://creativecommons.org/ns#"
   xmlns:rdf="http://www.w3.org/1999/02/22-rdf-syntax-ns#"
   xmlns:svg="http://www.w3.org/2000/svg"
   xmlns="http://www.w3.org/2000/svg"
   x="0px" y="0px"
   viewBox="285.04 638.26 2888.45 638.81"
   xml:space="preserve"
   id="svg2"
   version="1.1">
         <g
     transform="matrix(1.3333333,0,0,-1.3333333,0,1920)"
     id="g10"><g
       id="g12"><g
         clip-path="url(#clipPath18)"
         id="g14"><g
           transform="translate(541.5615,548.6816)"
           id="g20"><path
             id="path22"
             style="fill:#63492c;fill-opacity:1;fill-rule:nonzero;stroke:none"
             d="M 0,0 C -3.367,15.217 -15.942,26.915 -31.448,29.114 -47.099,31.309 -62.314,23.7 -69.772,9.953 c -6.58,-12.877 -5.27,-28.087 3.361,-39.502 8.634,-11.555 22.823,-17.108 36.86,-14.625 -17.989,-8.339 -44.87,-2.701 -60.786,9.124 -17.585,13.067 -38.675,35.904 -92.548,75.405 -14.313,10.494 -17.457,31.137 -15.468,40.628 1.988,9.492 61.332,237.364 61.332,237.364 8.24,31.478 14.573,35.911 44.572,37.18 l 2.112,8.66 c -20.281,-0.843 -47.111,-1.269 -75.624,-1.269 -32.959,0 -65.068,0.426 -81.757,1.269 l -2.322,-8.66 c 20.911,-0.843 29.151,-3.381 29.151,-16.48 0,-5.071 -1.269,-11.83 -3.591,-20.7 l -57.038,-214.631 c -8.241,-31.48 -15.211,-35.911 -44.572,-37.18 l -1.691,-8.661 C -188.697,59.141 -134.158,-81.087 -51.637,-63.643 1.11,-51.034 1.759,-13.602 0,0" /></g><g
           transform="translate(1100.3296,704.8613)"
           id="g24"><path
             id="path26"
             style="fill:#63492c;fill-opacity:1;fill-rule:nonzero;stroke:none"
             d="M 0,0 C 14.151,8.029 27.882,17.748 39.712,29.368 62.53,51.969 79.003,80.91 79.003,114.5 c 0,7.818 -2.532,10.988 -6.971,10.988 C 47.32,125.488 10.35,60.419 0,0 m -1.269,-7.812 c -0.849,-7.609 -1.48,-15 -1.48,-22.181 0,-33.59 14.152,-41.829 35.911,-41.829 11.62,0 37.18,7.391 60.63,30.21 l 6.76,-3.38 C 81.12,-73.934 43.94,-103.091 -8.877,-103.091 c -40.561,0 -74.782,20.918 -74.782,61.051 0,84.29 70.139,175.761 165.2,175.761 30.841,0 53.659,-12.251 53.659,-38.233 0,-52.179 -71.401,-88.301 -136.469,-103.3" /></g><g
           transform="translate(1596.4961,704.8613)"
           id="g28"><path
             id="path30"
             style="fill:#63492c;fill-opacity:1;fill-rule:nonzero;stroke:none"
             d="M 0,0 C 14.152,8.029 27.883,17.748 39.713,29.368 62.53,51.969 79.01,80.91 79.01,114.5 c 0,7.818 -2.538,10.988 -6.977,10.988 C 47.32,125.488 10.351,60.419 0,0 m -1.269,-7.812 c -0.841,-7.609 -1.479,-15 -1.479,-22.181 0,-33.59 14.157,-41.829 35.911,-41.829 11.619,0 37.18,7.391 60.63,30.21 l 6.76,-3.38 C 81.121,-73.934 43.94,-103.091 -8.87,-103.091 c -40.561,0 -74.788,20.918 -74.788,61.051 0,84.29 70.138,175.761 165.2,175.761 30.841,0 53.659,-12.251 53.659,-38.233 0,-52.179 -71.408,-88.301 -136.47,-103.3" /></g><g
           transform="translate(1502.5371,912.939)"
           id="g32"><path
             id="path34"
             style="fill:#63492c;fill-opacity:1;fill-rule:nonzero;stroke:none"
             d="m 0,0 c -32.955,0 -65.066,0.43 -81.756,1.272 l -1.262,-4.705 -1.06,-3.957 c 11.789,-0.475 19.431,-1.569 23.957,-4.706 3.505,-2.433 5.196,-6.056 5.196,-11.772 0,-5.073 -1.272,-11.833 -3.595,-20.702 l -64.06,-239.617 c -12.91,-42.868 -23.125,-76.57 -25.91,-85.094 -7.346,-22.506 -21.357,-32.329 -39.787,-39.641 -18.431,-7.313 -38.18,-6.877 -56.169,1.462 14.038,-2.484 28.226,3.07 36.862,14.625 8.629,11.414 9.94,26.625 3.359,39.502 -7.457,13.748 -22.672,21.355 -38.324,19.162 -15.506,-2.2 -28.081,-13.899 -31.447,-29.115 -1.758,-13.603 -1.111,-51.034 51.637,-63.643 82.52,-17.444 150.127,25.603 178.365,114.816 2.271,7.179 5.157,16.165 8.444,26.329 l 7.457,26.589 57.034,214.625 c 8.239,31.481 14.575,35.913 44.571,37.18 l 0.966,3.957 1.149,4.705 C 55.343,0.43 28.517,0 0,0" /></g><g
           transform="translate(2301.8818,827.6758)"
           id="g36"><path
             id="path38"
             style="fill:#63492c;fill-opacity:1;fill-rule:nonzero;stroke:none"
             d="m 0,0 -29.148,-109 c -0.457,-1.485 -0.921,-2.892 -1.378,-4.349 -10.031,-31.933 -20.039,-58.184 -48.864,-76.09 -2.924,-2.629 -7.457,-2.919 -10.817,-0.726 -3.365,2.194 -4.683,6.581 -3.365,10.237 L -45.538,0.25 h -76.998 l -41.769,-159.19 -2.556,-10.6 c -0.77,-3.215 -1.144,-6.452 -1.244,-9.673 -0.358,-11.409 3.399,-22.561 11.045,-31.576 9.652,-11.56 23.846,-17.555 38.911,-16.679 33.061,5.85 49.259,20.948 69.889,47.423 l -0.446,-1.39 -1.993,-7.826 -2.64,-9.94 c -12.911,-42.868 -23.126,-76.57 -25.911,-85.089 -7.346,-22.505 -21.355,-32.329 -39.786,-39.642 -16.45,-6.53 -33.932,-6.837 -50.292,-0.915 -1.976,0.715 -3.941,1.48 -5.878,2.378 14.038,-2.489 28.227,3.07 36.862,14.624 5.085,6.721 7.552,14.764 7.441,22.868 -0.078,5.655 -1.379,11.337 -4.08,16.628 -7.457,13.754 -22.673,21.357 -38.325,19.168 -15.506,-2.199 -28.082,-13.898 -31.448,-29.114 -0.351,-2.719 -0.58,-6.413 -0.346,-10.644 0.95,-16.952 9.769,-42.913 51.983,-52.999 9.6,-2.032 13.408,-3.544 27.903,-3.544 14.496,0 101.808,2.631 135.353,115.966 C 43.681,-116.182 78.239,0.581 78.239,0.581 Z" /></g><g
           transform="translate(872.5122,827.9561)"
           id="g40"><path
             id="path42"
             style="fill:#63492c;fill-opacity:1;fill-rule:nonzero;stroke:none"
             d="M 0,0 21.127,71.821 C -2.746,67.813 -26.195,66.122 -57.67,65.692 L -76.47,0 h -19.056 -21.077 -22.02 l 21.127,71.821 c -23.873,-4.008 -47.322,-5.699 -78.798,-6.129 L -215.093,0 h -40.133 l -2.121,-8.668 h 39.72 l -41.83,-145.338 c -2.746,-9.712 -4.225,-19.012 -4.225,-27.675 0,-11.922 2.986,-22.243 8.919,-30.247 7.631,-10.287 20.268,-16.65 39.034,-16.65 29.639,0 52.116,15.606 64.569,42.421 l -3.767,1.882 c -5.247,-5.103 -19.789,-19.581 -30.17,-19.581 -5.699,0 -9.081,3.377 -9.081,9.929 0,2.317 0.424,5.069 1.261,8.24 l 51.76,177.019 h 22.433 21.931 17.789 l -41.829,-145.338 c -2.747,-9.712 -4.226,-19.012 -4.226,-27.675 0,-11.922 2.986,-22.243 8.919,-30.247 7.631,-10.287 20.268,-16.65 39.034,-16.65 29.639,0 52.117,15.606 64.569,42.421 l -3.767,1.882 c -5.247,-5.103 -18.868,-19.581 -30.17,-19.581 -5.698,0 -9.081,3.377 -9.081,9.929 0,2.317 0.424,5.069 1.262,8.24 L -2.534,-8.668 H 41.83 L 43.097,0 Z" /></g><g
           transform="translate(964.54,624.1016)"
           id="g44"><path
             id="path46"
             style="fill:#63492c;fill-opacity:1;fill-rule:nonzero;stroke:none"
             d="m 0,0 c -5.699,0 -9.082,3.377 -9.082,9.931 0,2.316 0.425,5.068 1.262,8.238 L 84.285,327.716 C 50.063,316.52 15.635,310.391 -31.687,309.972 l -2.959,-9.087 c 21.546,0 29.36,-5.286 29.36,-16.477 0,-3.378 -0.843,-7.391 -2.11,-12.04 L -74.36,49.851 c -2.746,-9.712 -4.225,-19.011 -4.225,-27.674 0,-11.923 2.986,-22.243 8.919,-30.247 7.63,-10.288 20.268,-16.651 39.033,-16.651 29.639,0 52.117,15.607 64.57,42.421 l -3.768,1.881 C 24.922,14.479 11.077,0 0,0" /></g><g
           transform="translate(1892.3105,838.5811)"
           id="g48"><path
             id="path50"
             style="fill:#63492c;fill-opacity:1;fill-rule:nonzero;stroke:none"
             d="m 0,0 c -24.604,0 -41.668,-10.025 -57.436,-39.965 l 9.667,35.416 c -22.566,-3.952 -44.771,-5.649 -74.326,-6.107 h -0.776 l -0.006,-0.016 c -0.128,0 -0.251,0 -0.385,-0.006 l -61.996,-220.005 h 76.682 l 15.384,57.185 14.472,53.803 C -63.04,-64.335 -40.625,0 8.793,-8.378 c -25.559,-4.639 -42.045,-27.883 -42.045,-53.23 0,-21.339 11.409,-32.53 32.53,-32.53 28.518,0 48.796,25.134 48.796,54.081 C 48.074,-16.608 26.832,0 0,0" /></g><g
           transform="translate(2097.5879,838.5811)"
           id="g52"><path
             id="path54"
             style="fill:#63492c;fill-opacity:1;fill-rule:nonzero;stroke:none"
             d="m 0,0 c -24.604,0 -41.668,-10.025 -57.437,-39.965 l 9.667,35.416 c -22.566,-3.952 -44.77,-5.649 -74.326,-6.107 h -0.776 l -0.005,-0.016 c -0.129,0 -0.251,0 -0.386,-0.006 l -61.996,-220.005 h 76.682 l 15.384,57.185 14.473,53.803 C -63.041,-64.335 -40.626,0 8.792,-8.378 c -25.559,-4.639 -42.044,-27.883 -42.044,-53.23 0,-21.339 11.409,-32.53 32.53,-32.53 28.517,0 48.796,25.134 48.796,54.081 C 48.074,-16.608 26.831,0 0,0" /></g><g
           transform="translate(642.3921,927.6909)"
           id="g56"><path
             id="path58"
             style="fill:#63492c;fill-opacity:1;fill-rule:nonzero;stroke:none"
             d="m 0,0 c 1.223,0 1.926,-0.882 1.926,-3.042 0,-9.294 -4.56,-17.304 -10.873,-23.561 -3.271,-3.215 -7.073,-5.905 -10.991,-8.121 C -17.075,-18.007 -6.843,0 0,0 m 17.471,-8.306 c 0,7.195 -6.307,10.583 -14.842,10.583 -26.312,0 -45.877,-25.314 -45.714,-48.639 0.025,-3.683 -3.489,-9.992 -10.595,-9.992 -1.322,0 -4.069,1.078 -2.679,4.968 l 11.175,33.451 0.692,2.088 c 0.938,2.864 1.407,5.498 1.407,7.776 0,6.43 -3.623,10.348 -10.583,10.348 -11.281,0 -18.939,-5.085 -27.184,-24.202 l 14.848,55.538 c -6.95,-2.283 -14.027,-3.801 -22.389,-4.56 l -2.215,-8.306 c -3.573,-1.111 -12.208,-1.635 -18.409,-1.635 -12.101,0 -28.35,3.393 -43.783,3.393 -3.506,0 -10.405,-0.117 -16.076,-2.869 -6.782,-3.387 -8.713,-9.003 -8.713,-13.323 0,-6.084 3.801,-11.577 10.762,-11.577 6.491,0 11.632,5.029 11.632,11.923 0,6.609 -4.56,10.817 -10.7,11.632 3.042,1.462 7.948,2.049 13.681,2.049 3.332,0 7.189,-0.296 11.225,-0.704 l -17.951,-67.282 c -2.278,-8.774 -5.141,-11.169 -15.194,-11.515 l -0.474,-2.401 c 5.034,0.235 14.272,0.353 23.443,0.353 9.707,0 19.408,-0.118 25.023,-0.353 l 0.525,2.401 c -7.072,0.463 -9.824,1.987 -9.824,6.307 0,1.407 0.301,3.165 0.82,5.208 l 17.069,64.715 c 2.691,-0.235 5.208,-0.352 7.368,-0.352 5.091,0 14.663,0.352 18.872,1.401 l -21.283,-79.68 21.166,-0.01 c 9.712,37.236 20.401,56.42 26.48,56.42 1.049,0 1.524,-0.637 1.524,-1.87 0,-1.049 -0.352,-2.629 -1.055,-4.616 l -2.094,-6.297 -8.194,-24.688 c -0.083,-0.251 -0.106,-0.452 -0.184,-0.697 -0.558,-2.283 -1.01,-4.533 -1.01,-6.598 0,-3.388 0.848,-6.324 2.54,-8.601 2.087,-2.819 5.621,-4.689 10.544,-4.689 9.997,0 16.935,4.711 20.876,11.108 2.707,-7.313 10.544,-11.158 19.608,-11.158 14.613,0 24.9,8.071 30.281,16.075 l -1.87,0.938 c -6.486,-6.313 -13.558,-8.361 -16.779,-8.361 -6.017,0 -9.935,2.282 -9.935,11.576 0,1.987 0.178,4.036 0.407,6.134 18.007,4.159 37.761,14.15 37.761,28.59" /></g><g
           transform="translate(592.7852,819.2905)"
           id="g60"><path
             id="path62"
             style="fill:#63492c;fill-opacity:1;fill-rule:nonzero;stroke:none"
             d="M 0,0 4.024,14.976 C -19.849,10.968 -43.298,9.277 -74.773,8.847 L -88.359,8.786 c -6.665,0.139 -13.536,0.234 -20.887,0.172 L -109.335,8.685 -114.069,8.668 -116.19,0 h 4.024 l -0.039,-0.123 c 21.552,0 29.36,-5.292 29.36,-16.483 0,-3.377 -0.843,-7.39 -2.11,-12.04 l -1.83,-7.2 -31.515,-109.492 c -2.746,-9.712 -4.22,-19.011 -4.22,-27.674 0,-11.923 2.981,-22.243 8.92,-30.247 7.625,-10.288 20.262,-16.651 39.028,-16.651 29.639,0 52.122,15.607 64.57,42.421 l -3.763,1.881 c -5.247,-5.101 -19.026,-19.581 -30.174,-19.581 -5.694,0 -9.077,3.377 -9.077,9.931 0,2.316 0.425,5.068 1.262,8.238 z" /></g></g></g></g></svg>